<?xml version="1.0" standalone="no"?>
<!DOCTYPE svg PUBLIC "-//W3C//DTD SVG 20010904//EN"
 "http://www.w3.org/TR/2001/REC-SVG-20010904/DTD/svg10.dtd">
<svg version="1.0" xmlns="http://www.w3.org/2000/svg"
 width="740.000000pt" height="740.000000pt" viewBox="0 0 740.000000 740.000000"
 preserveAspectRatio="xMidYMid meet">

<g transform="translate(0.000000,740.000000) scale(0.100000,-0.100000)"
fill="#000000" stroke="none">
<path d="M3260 6534 c-607 -329 -765 -414 -1520 -822 l-665 -360 0 -133 c0
-126 1 -134 20 -137 11 -1 94 37 185 86 437 236 1696 917 2031 1098 208 112
385 204 395 204 10 0 137 -65 283 -144 334 -180 1943 -1050 2152 -1162 85 -46
163 -84 172 -84 28 0 37 35 37 149 l0 111 -37 24 c-21 13 -434 237 -918 499
-484 261 -1060 572 -1280 691 -220 119 -404 216 -410 216 -5 0 -206 -106 -445
-236z"/>
<path d="M3600 6206 c-154 -42 -262 -160 -291 -317 -30 -167 62 -344 218 -416
230 -107 496 26 548 273 35 169 -44 343 -192 421 -95 51 -193 64 -283 39z
m132 -98 c3 -31 6 -33 52 -40 64 -9 71 -17 56 -63 -9 -28 -16 -35 -29 -30 -9
4 -43 9 -76 12 -44 3 -65 1 -80 -11 -31 -23 -9 -47 76 -79 97 -38 126 -60 140
-105 20 -69 -31 -141 -113 -159 -25 -5 -28 -10 -28 -45 l0 -39 -42 3 c-40 3
-43 5 -46 36 -2 23 -8 32 -21 32 -9 0 -40 7 -69 15 l-51 15 10 33 c6 17 12 37
14 44 3 8 14 8 42 -3 52 -18 147 -18 163 1 29 35 4 57 -105 97 -77 27 -115 67
-115 118 0 49 35 92 95 117 40 16 45 21 45 51 0 31 2 32 39 32 37 0 40 -2 43
-32z"/>
<path d="M2370 5020 l0 -280 -730 0 -730 0 0 -60 0 -60 480 0 480 0 0 -56 c0
-48 -4 -59 -29 -85 -17 -17 -40 -29 -55 -29 l-26 0 2 -1232 3 -1233 27 -3 c44
-5 78 -54 78 -113 l0 -49 -422 -2 -423 -3 0 -90 0 -90 2695 0 2695 0 0 90 0
90 -437 3 -438 2 0 58 c0 48 4 62 23 80 13 12 33 22 45 22 l22 0 0 1235 0
1235 -20 0 c-12 0 -32 11 -45 25 -21 20 -25 34 -25 84 l0 61 483 2 482 3 0 55
0 55 -675 5 -675 5 -3 278 -2 277 -1390 0 -1390 0 0 -280z m2715 -195 l0 -420
-1322 -3 -1323 -2 0 425 0 425 1323 -2 1322 -3 0 -420z m-2715 -340 l0 -135
105 0 105 0 0 -1185 0 -1185 28 0 c45 0 74 -38 76 -102 l1 -53 -327 -3 -328
-2 0 55 c0 46 4 60 25 80 13 14 33 25 45 25 l20 0 0 1234 0 1234 -25 6 c-48
12 -65 40 -65 106 l0 60 170 0 170 0 0 -135z m3010 75 c0 -51 -4 -65 -25 -85
-13 -14 -36 -25 -50 -25 l-25 0 0 -1235 0 -1235 25 0 c14 0 37 -11 50 -25 21
-20 25 -34 25 -80 l0 -55 -325 0 -325 0 0 55 c0 46 4 60 25 80 13 14 33 25 45
25 l20 0 0 1185 0 1185 165 0 165 0 0 128 c0 71 3 132 7 135 3 4 55 7 115 7
l108 0 0 -60z"/>
<path d="M2475 4825 c0 -214 1 -301 2 -192 2 109 2 285 0 390 -1 106 -2 17 -2
-198z"/>
<path d="M2980 4850 l0 -270 112 0 112 0 43 42 c42 41 43 43 43 109 0 67 0 68
-40 96 -22 15 -40 30 -40 33 0 3 14 14 30 23 29 18 30 20 30 96 0 74 -1 78
-33 109 l-33 32 -112 0 -112 0 0 -270z m180 110 l0 -60 -30 0 -30 0 0 60 0 60
30 0 30 0 0 -60z m0 -220 l0 -60 -30 0 -30 0 0 60 0 60 30 0 30 0 0 -60z"/>
<path d="M3455 5098 c-8 -34 -75 -483 -75 -502 0 -13 12 -16 60 -16 l60 0 0
33 c0 65 9 78 49 75 35 -3 36 -4 41 -53 l5 -50 58 -3 c49 -3 57 -1 57 15 0 10
-16 132 -37 271 l-38 252 -87 0 c-83 0 -88 -1 -93 -22z m110 -187 c3 -47 9
-94 11 -103 4 -15 -1 -18 -27 -18 l-32 0 7 93 c13 166 29 178 41 28z"/>
<path d="M3800 4850 l0 -270 55 0 55 0 0 122 c0 67 3 118 6 115 4 -4 23 -57
43 -119 l37 -113 52 -3 52 -3 0 270 0 271 -55 0 -55 0 0 -122 c0 -71 -4 -118
-9 -112 -5 5 -24 60 -42 122 l-33 112 -53 0 -53 0 0 -270z"/>
<path d="M4180 4850 l0 -270 60 0 60 0 0 107 c0 59 4 103 8 98 5 -6 26 -54 48
-107 l39 -98 68 0 c37 0 67 3 67 6 0 3 -27 68 -60 143 l-61 136 51 120 c27 65
50 123 50 128 0 4 -28 7 -62 5 l-61 -3 -36 -97 c-20 -53 -40 -100 -44 -104 -4
-4 -7 41 -7 99 l0 107 -60 0 -60 0 0 -270z"/>
<path d="M616 1474 c-12 -30 -7 -249 6 -262 9 -9 710 -12 3093 -12 1694 0
3086 4 3093 8 9 7 12 42 10 143 l-3 134 -3096 3 c-2818 2 -3097 1 -3103 -14z"/>
</g>
</svg>
