<?xml version="1.0" standalone="no"?>
<!DOCTYPE svg PUBLIC "-//W3C//DTD SVG 20010904//EN"
 "http://www.w3.org/TR/2001/REC-SVG-20010904/DTD/svg10.dtd">
<svg xmlns="http://www.w3.org/2000/svg" viewBox="0 0 512 512" style="enable-background:new 0 0 512 512" xml:space="preserve">
  <path d="M512 256c0 141.387-114.613 256-256 256S0 397.387 0 256 114.613 0 256 0s256 114.613 256 256z" style="fill:#21c25e"/>
  <path d="M368.302 193.891h-25.763c-3.793 0-7.473 1.378-10.334 3.872-2.85 2.494-4.726 5.954-5.264 9.716l-12.617 85.25c-.192 1.469-.643 2.896-1.335 4.216a11.44 11.44 0 0 1-2.657 3.461 11.464 11.464 0 0 1-3.705 2.226c-1.358.498-2.795.75-4.236.741h-75.858l4.236-27.05h64.696c3.793 0 7.473-1.378 10.334-3.872 2.861-2.494 4.726-5.954 5.264-9.716l12.617-85.261c.192-1.469.643-2.896 1.335-4.216a11.442 11.442 0 0 1 2.657-3.461 11.463 11.463 0 0 1 3.705-2.226c1.358-.498 2.795-.75 4.236-.741h-63.696c-2.583.072-5.124.726-7.437 1.922-2.312 1.196-4.341 2.907-5.933 5.003-1.591 2.097-2.708 4.522-3.271 7.097-.563 2.575-.558 5.246.016 7.819l-19.48 124.266h-47.627l20.186-132.086h-40.693l-22.166 144.985c-.519 3.151-.284 6.382.686 9.416.97 3.034 2.685 5.771 4.974 7.955a21.866 21.866 0 0 0 8.044 4.798c2.999.962 6.179 1.173 9.272.617h61.231c2.583-.072 5.124-.726 7.437-1.922 2.312-1.196 4.341-2.907 5.933-5.003 1.591-2.097 2.708-4.522 3.271-7.097.563-2.575.558-5.246-.016-7.819l4.521-28.326h74.779c2.583-.072 5.124-.726 7.437-1.922 2.312-1.196 4.341-2.907 5.933-5.003 1.591-2.097 2.708-4.522 3.271-7.097.563-2.575.558-5.246-.016-7.819l12.722-85.793c.519-3.151.284-6.382-.686-9.416-.97-3.034-2.685-5.771-4.974-7.955a21.866 21.866 0 0 0-8.044-4.798c-2.999-.962-6.179-1.173-9.273-.617z" style="fill:#fff"/>
</svg>
